<svg preserveAspectRatio="none" overflow="visible" style="display: block;" width="109.716" height="75.1264" viewBox="0 0 109.716 75.1264" fill="none" xmlns="http://www.w3.org/2000/svg">
<g id="Group" filter="url(#filter0_d_0_160)">
<path id="Vector" d="M6.55165 23.1224L11.0883 54.8623C11.4963 57.7369 14.3767 59.7169 17.5152 59.2697L80.1339 50.9261L90.2813 62.347C90.8454 62.9554 91.9316 62.5081 91.8476 61.7089L90.7794 48.9282L92.2256 48.7255C95.3701 48.2841 97.5724 45.5884 97.1643 42.7138L92.6277 10.9739C92.2136 8.09332 89.3392 6.11331 86.2008 6.5606L11.4903 17.1048C8.3459 17.5461 6.14359 20.2418 6.55165 23.1224Z" fill="#FFECCD" stroke="#FBB671" stroke-width="7" stroke-miterlimit="10"/>
<g id="Group_2" opacity="0.6" filter="url(#filter1_d_0_160)">
<path id="Vector_2" d="M35.4937 41.8014C38.2776 41.8014 40.5344 39.5584 40.5344 36.7917C40.5344 34.0249 38.2776 31.782 35.4937 31.782C32.7098 31.782 30.453 34.0249 30.453 36.7917C30.453 39.5584 32.7098 41.8014 35.4937 41.8014Z" fill="#6C5690"/>
<path id="Vector_3" d="M52.4581 39.6007C55.242 39.6007 57.4988 37.3578 57.4988 34.591C57.4988 31.8242 55.242 29.5813 52.4581 29.5813C49.6742 29.5813 47.4174 31.8242 47.4174 34.591C47.4174 37.3578 49.6742 39.6007 52.4581 39.6007Z" fill="#6C5690"/>
<path id="Vector_4" d="M68.2283 37.3463C71.0122 37.3463 73.269 35.1034 73.269 32.3366C73.269 29.5699 71.0122 27.3269 68.2283 27.3269C65.4444 27.3269 63.1876 29.5699 63.1876 32.3366C63.1876 35.1034 65.4444 37.3463 68.2283 37.3463Z" fill="#6C5690"/>
</g>
</g>
<defs>
<filter id="filter0_d_0_160" x="-2.38419e-07" y="-2.38419e-07" width="109.716" height="75.1264" filterUnits="userSpaceOnUse" color-interpolation-filters="sRGB">
<feFlood flood-opacity="0" result="BackgroundImageFix"/>
<feColorMatrix in="SourceAlpha" type="matrix" values="0 0 0 0 0 0 0 0 0 0 0 0 0 0 0 0 0 0 127 0" result="hardAlpha"/>
<feOffset dx="3" dy="3"/>
<feGaussianBlur stdDeviation="3"/>
<feColorMatrix type="matrix" values="0 0 0 0 0 0 0 0 0 0 0 0 0 0 0 0 0 0 0.35 0"/>
<feBlend mode="normal" in2="BackgroundImageFix" result="effect1_dropShadow_0_160"/>
<feBlend mode="normal" in="SourceGraphic" in2="effect1_dropShadow_0_160" result="shape"/>
</filter>
<filter id="filter1_d_0_160" x="27.453" y="24.3269" width="54.816" height="26.4744" filterUnits="userSpaceOnUse" color-interpolation-filters="sRGB">
<feFlood flood-opacity="0" result="BackgroundImageFix"/>
<feColorMatrix in="SourceAlpha" type="matrix" values="0 0 0 0 0 0 0 0 0 0 0 0 0 0 0 0 0 0 127 0" result="hardAlpha"/>
<feOffset dx="3" dy="3"/>
<feGaussianBlur stdDeviation="3"/>
<feColorMatrix type="matrix" values="0 0 0 0 0.207843 0 0 0 0 0.207843 0 0 0 0 0.207843 0 0 0 0.2 0"/>
<feBlend mode="normal" in2="BackgroundImageFix" result="effect1_dropShadow_0_160"/>
<feBlend mode="normal" in="SourceGraphic" in2="effect1_dropShadow_0_160" result="shape"/>
</filter>
</defs>
</svg>
